<svg xmlns="http://www.w3.org/2000/svg" viewBox="0 0 100 28.201479021477386" xmlns:xlink="http://www.w3.org/1999/xlink" version="1.1"  ><g transform="translate(26.2030376263643 16.2158504373495) scale(0.1410073951073869)" id="horizontalContainerlessSvgTemplate"><g fill="#4710B2"><g transform="translate(-2.368421052631579 38.68421052631579) scale(1.8274853801169588)" fill="#4710B2"><g id="line1" fill="#4710B2"><path d="M9.612-1.728C11.124-0.096 13.440 0.720 16.560 0.720L22.392 0.720L22.896-4.464L21.240-4.464C18.744-4.464 17.028-4.596 16.092-4.860C15.156-5.124 14.544-5.712 14.256-6.624C13.968-7.536 13.824-9.216 13.824-11.664L13.824-30.240L23.112-30.240L23.112-35.280L13.824-35.280L13.824-44.640L7.344-43.992L7.344-35.280L1.872-35.280L1.296-30.240L7.344-30.240L7.344-7.704C7.344-5.352 8.100-3.360 9.612-1.728Z"></path><path d="M27.216-2.160C29.208-0.240 31.836 0.720 35.100 0.720C39.324 0.720 42.924-1.008 45.900-4.464C46.428-3.216 46.992-2.232 47.592-1.512C48.192-0.792 49.068-0.240 50.220 0.144C51.372 0.528 52.956 0.720 54.972 0.720L55.476 0.720L56.484-4.464L55.836-4.464C54.636-4.464 53.748-4.728 53.172-5.256C52.596-5.784 52.224-6.540 52.056-7.524C51.888-8.508 51.804-9.960 51.804-11.880L51.804-19.080C51.804-23.352 51.384-26.712 50.544-29.160C49.704-31.608 48.384-33.360 46.584-34.416C44.784-35.472 42.372-36.000 39.348-36.000C37.044-36.000 34.836-35.664 32.724-34.992C30.612-34.320 28.836-33.432 27.396-32.328L28.332-27.072C30.060-28.272 31.668-29.100 33.156-29.556C34.644-30.012 36.132-30.240 37.620-30.240C40.308-30.240 42.264-29.676 43.488-28.548C44.712-27.420 45.324-25.272 45.324-22.104C39.708-22.008 34.788-21.000 30.564-19.080C26.340-17.160 24.228-13.968 24.228-9.504C24.228-6.528 25.224-4.080 27.216-2.160ZM41.328-5.760C39.720-4.896 38.052-4.464 36.324-4.464C34.644-4.464 33.312-4.908 32.328-5.796C31.344-6.684 30.852-8.040 30.852-9.864C30.852-12.504 31.968-14.412 34.200-15.588C36.432-16.764 40.140-17.448 45.324-17.640L45.324-9.216C44.268-7.776 42.936-6.624 41.328-5.760Z"></path><path d="M62.388-0.252C64.476 0.396 66.912 0.720 69.696 0.720C74.592 0.720 78.060-0.312 80.100-2.376C82.140-4.440 83.160-6.912 83.160-9.792C83.160-13.008 82.164-15.360 80.172-16.848C78.180-18.336 75.816-19.488 73.080-20.304C70.872-20.976 69.240-21.528 68.184-21.960C67.128-22.392 66.312-22.932 65.736-23.580C65.160-24.228 64.872-25.080 64.872-26.136C64.872-27.720 65.484-28.908 66.708-29.700C67.932-30.492 69.600-30.888 71.712-30.888C73.536-30.888 75.144-30.612 76.536-30.060C77.928-29.508 79.200-28.752 80.352-27.792L81.144-33.696C79.704-34.416 78.264-34.980 76.824-35.388C75.384-35.796 73.632-36.000 71.568-36.000C67.056-36.000 63.720-34.992 61.560-32.976C59.400-30.960 58.320-28.440 58.320-25.416C58.320-23.208 58.860-21.432 59.940-20.088C61.020-18.744 62.316-17.748 63.828-17.100C65.340-16.452 67.200-15.840 69.408-15.264C71.424-14.688 73.104-13.980 74.448-13.140C75.792-12.300 76.464-11.064 76.464-9.432C76.464-8.040 75.852-6.960 74.628-6.192C73.404-5.424 71.664-5.040 69.408-5.040C67.008-5.040 64.812-5.424 62.820-6.192C60.828-6.960 59.352-7.776 58.392-8.640L57.600-2.376C58.704-1.608 60.300-0.900 62.388-0.252Z"></path><path d="M92.952-1.728C94.464-0.096 96.780 0.720 99.900 0.720L105.732 0.720L106.236-4.464L104.580-4.464C102.084-4.464 100.368-4.596 99.432-4.860C98.496-5.124 97.884-5.712 97.596-6.624C97.308-7.536 97.164-9.216 97.164-11.664L97.164-30.240L106.452-30.240L106.452-35.280L97.164-35.280L97.164-44.640L90.684-43.992L90.684-35.280L85.212-35.280L84.636-30.240L90.684-30.240L90.684-7.704C90.684-5.352 91.440-3.360 92.952-1.728Z"></path><path d="M116.820-1.764C119.676-0.108 123.120 0.720 127.152 0.720C130.944 0.720 134.880-0.192 138.960-2.016L138.096-7.128C135.024-5.736 131.640-5.040 127.944-5.040C124.248-5.040 121.224-6.000 118.872-7.920C116.520-9.840 115.128-13.080 114.696-17.640L140.256-17.640C140.448-18.744 140.544-19.896 140.544-21.096C140.544-25.752 139.140-29.400 136.332-32.040C133.524-34.680 129.864-36.000 125.352-36.000C121.800-36.000 118.716-35.196 116.100-33.588C113.484-31.980 111.492-29.796 110.124-27.036C108.756-24.276 108.072-21.240 108.072-17.928C108.072-14.472 108.816-11.328 110.304-8.496C111.792-5.664 113.964-3.420 116.820-1.764ZM133.848-22.104L115.272-22.104C115.944-24.792 117.072-26.820 118.656-28.188C120.240-29.556 122.424-30.240 125.208-30.240C128.088-30.240 130.248-29.520 131.688-28.080C133.128-26.640 133.848-24.648 133.848-22.104Z"></path><path d=""></path><path d="M166.356-1.764C169.212-0.108 172.656 0.720 176.688 0.720C180.480 0.720 184.416-0.192 188.496-2.016L187.632-7.128C184.560-5.736 181.176-5.040 177.480-5.040C173.784-5.040 170.760-6.000 168.408-7.920C166.056-9.840 164.664-13.080 164.232-17.640L189.792-17.640C189.984-18.744 190.080-19.896 190.080-21.096C190.080-25.752 188.676-29.400 185.868-32.040C183.060-34.680 179.400-36.000 174.888-36.000C171.336-36.000 168.252-35.196 165.636-33.588C163.020-31.980 161.028-29.796 159.660-27.036C158.292-24.276 157.608-21.240 157.608-17.928C157.608-14.472 158.352-11.328 159.840-8.496C161.328-5.664 163.500-3.420 166.356-1.764ZM183.384-22.104L164.808-22.104C165.480-24.792 166.608-26.820 168.192-28.188C169.776-29.556 171.960-30.240 174.744-30.240C177.624-30.240 179.784-29.520 181.224-28.080C182.664-26.640 183.384-24.648 183.384-22.104Z"></path><path d="M196.992-1.728C198.456-0.096 200.772 0.720 203.940 0.720L206.028 0.720L206.964-4.464C205.236-4.464 203.988-4.632 203.220-4.968C202.452-5.304 201.936-5.952 201.672-6.912C201.408-7.872 201.276-9.408 201.276-11.520L201.276-54.000L194.796-54.000L194.796-7.776C194.796-5.376 195.528-3.360 196.992-1.728Z"></path><path d="M210.096-50.400L210.096-43.200L216.576-43.200L216.576-50.400ZM210.096-35.280L210.096 0L216.576 0L216.576-35.280Z"></path><path d="M232.308-17.568L219.996 0L227.268 0L236.340-13.896L245.268 0L252.540 0L240.516-18.144L252.108-35.280L244.548-35.280L236.412-21.312L227.556-35.280L220.284-35.280Z"></path><path d="M255.960-50.400L255.960-43.200L262.440-43.200L262.440-50.400ZM255.960-35.280L255.960 0L262.440 0L262.440-35.280Z"></path><path d="M269.460-35.280L269.460 0L276.372 0L276.372-24.912C277.092-25.968 278.244-26.892 279.828-27.684C281.412-28.476 283.092-28.872 284.868-28.872C285.684-28.872 286.404-28.800 287.028-28.656L287.676-35.784C287.148-35.928 286.596-36.000 286.020-36.000C284.196-36.000 282.456-35.472 280.800-34.416C279.144-33.360 277.404-31.704 275.580-29.448L274.788-35.280Z"></path></g></g><g transform="translate(-215.5117559680265 -121.88917529025929) scale(2.1765886035479998)" id="logomark"><g fill="#4710B2"><path d="M69.7 23.29a3.52 3.52 0 1 0-5 5l1.2 1.2-6.45 6.45A31.33 31.33 0 1 0 73 49.73l6.61-6.61.56.56a3.52 3.52 0 1 0 5-5zm.87 22.41L67.3 49a26.56 26.56 0 0 1 2.24 4.18A27 27 0 0 1 70 72.87a11 11 0 0 1-21.11-5.45 28.15 28.15 0 0 0-7.57-22.7 26.83 26.83 0 0 0-3.8-3.16 26.79 26.79 0 0 0-10.2 42.36q-.72-.63-1.41-1.32a26.79 26.79 0 0 1 30.16-43.28 26.55 26.55 0 0 1 4.09 2.33l9-9 7.22 7.22z"></path><circle cx="83.15" cy="27.14" r="3.29" transform="rotate(-45 83.142 27.141)"></circle><circle cx="58.64" cy="9.42" r="4.42" transform="rotate(-45 58.638 9.411)"></circle><circle cx="73.3" cy="15.25" r="2.92" transform="rotate(-45.01 73.305 15.242)"></circle><circle cx="41.79" cy="14.62" r="2.81" transform="rotate(-45 41.786 14.621)"></circle><circle cx="83.49" cy="16.58" r="1.36" transform="rotate(-45 83.487 16.579)"></circle><ellipse cx="50.2" cy="21.94" rx="2.41" ry="2.41" transform="rotate(-45.09 50.196 21.94)"></ellipse></g></g></g></g></svg>