<svg xmlns="http://www.w3.org/2000/svg" viewBox="0 0 100 123.90076376556732" xmlns:xlink="http://www.w3.org/1999/xlink" version="1.1"  ><g transform="translate(-18.389571825463694 -4.2678704008899935) scale(1.3484049519151338)" id="containerlessSvgTemplate"><g fill="#000000"><path d="M69.7 23.29a3.52 3.52 0 1 0-5 5l1.2 1.2-6.45 6.45A31.33 31.33 0 1 0 73 49.73l6.61-6.61.56.56a3.52 3.52 0 1 0 5-5zm.87 22.41L67.3 49a26.56 26.56 0 0 1 2.24 4.18A27 27 0 0 1 70 72.87a11 11 0 0 1-21.11-5.45 28.15 28.15 0 0 0-7.57-22.7 26.83 26.83 0 0 0-3.8-3.16 26.79 26.79 0 0 0-10.2 42.36q-.72-.63-1.41-1.32a26.79 26.79 0 0 1 30.16-43.28 26.55 26.55 0 0 1 4.09 2.33l9-9 7.22 7.22z"></path><circle cx="83.15" cy="27.14" r="3.29" transform="rotate(-45 83.142 27.141)"></circle><circle cx="58.64" cy="9.42" r="4.42" transform="rotate(-45 58.638 9.411)"></circle><circle cx="73.3" cy="15.25" r="2.92" transform="rotate(-45.01 73.305 15.242)"></circle><circle cx="41.79" cy="14.62" r="2.81" transform="rotate(-45 41.786 14.621)"></circle><circle cx="83.49" cy="16.58" r="1.36" transform="rotate(-45 83.487 16.579)"></circle><ellipse cx="50.2" cy="21.94" rx="2.41" ry="2.41" transform="rotate(-45.09 50.196 21.94)"></ellipse></g></g></svg>