<?xml version="1.0" standalone="no"?>
<!DOCTYPE svg PUBLIC "-//W3C//DTD SVG 20010904//EN"
 "http://www.w3.org/TR/2001/REC-SVG-20010904/DTD/svg10.dtd">
<svg version="1.0" xmlns="http://www.w3.org/2000/svg"
 width="1858.000000pt" height="1858.000000pt" viewBox="0 0 1858.000000 1858.000000"
 preserveAspectRatio="xMidYMid meet">
<metadata>
Created by potrace 1.11, written by Peter Selinger 2001-2013
</metadata>
<g transform="translate(0.000000,1858.000000) scale(0.100000,-0.100000)"
fill="#000000" stroke="none">
<path d="M10789 18206 c-2 -2 -20 -6 -39 -9 -176 -24 -376 -128 -499 -260
-161 -172 -239 -356 -247 -584 -9 -260 74 -476 251 -658 206 -211 476 -302
778 -262 257 35 517 219 645 459 27 49 93 219 91 233 0 3 3 24 6 48 4 23 9 79
10 124 10 412 -266 776 -670 884 -72 19 -312 38 -326 25z"/>
<path d="M7488 16835 c-1 -2 -25 -4 -53 -6 -127 -7 -268 -76 -365 -179 -48
-51 -117 -162 -124 -201 -1 -8 -8 -34 -16 -59 -30 -106 -7 -279 52 -392 125
-236 421 -358 670 -274 200 67 331 205 383 405 14 57 20 164 12 221 -37 242
-248 449 -487 476 -25 3 -50 7 -57 9 -6 2 -13 2 -15 0z"/>
<path d="M13774 16719 c-82 -11 -198 -54 -232 -86 -7 -7 -18 -13 -23 -13 -5 0
-41 -31 -79 -70 -111 -112 -172 -259 -171 -410 2 -184 60 -314 196 -443 56
-53 183 -119 263 -137 218 -50 461 39 595 215 83 111 118 210 122 347 10 365
-307 647 -671 597z"/>
<path d="M15879 16139 c-140 -21 -234 -131 -233 -274 0 -84 32 -155 91 -204
138 -114 329 -78 421 78 23 40 27 57 27 126 0 64 -5 89 -23 125 -53 104 -171
166 -283 149z"/>
<path d="M9040 15248 c-140 -49 -231 -126 -290 -247 -25 -51 -31 -69 -47 -136
-7 -33 -3 -143 7 -188 41 -186 198 -336 387 -370 70 -13 75 -13 153 -4 187 22
357 172 409 361 15 58 8 222 -13 281 -53 145 -179 264 -329 309 -75 22 -202
19 -277 -6z"/>
<path d="M12480 14706 c-206 -45 -383 -176 -482 -356 -130 -239 -118 -519 35
-745 22 -33 105 -125 184 -204 l143 -144 -651 -653 -652 -653 -127 64 c-163
81 -434 198 -620 265 -186 67 -174 63 -180 64 -3 1 -39 12 -80 25 -168 52
-201 61 -330 95 -146 38 -420 97 -540 116 -41 6 -86 13 -100 16 -36 5 -168 23
-215 28 -22 3 -67 8 -100 11 -33 4 -71 8 -85 10 -175 26 -964 26 -1099 0 -9
-1 -52 -6 -97 -9 -44 -4 -92 -8 -105 -11 -13 -2 -46 -6 -74 -10 -27 -3 -63 -8
-80 -10 -16 -3 -46 -7 -65 -9 -19 -2 -70 -11 -112 -20 -42 -9 -94 -19 -115
-22 -21 -3 -78 -15 -128 -26 -49 -11 -100 -22 -113 -24 -112 -22 -433 -113
-607 -173 -155 -54 -307 -112 -319 -123 -6 -4 -15 -8 -22 -8 -6 0 -29 -7 -50
-16 -22 -9 -40 -16 -42 -15 -1 1 -37 -17 -81 -39 -43 -22 -82 -40 -85 -40 -9
0 -407 -199 -421 -210 -5 -4 -37 -23 -70 -40 -33 -18 -67 -38 -75 -45 -8 -7
-30 -18 -48 -26 -17 -8 -32 -17 -32 -20 0 -4 -8 -9 -17 -12 -10 -4 -58 -34
-108 -67 -49 -33 -98 -63 -107 -67 -10 -3 -18 -9 -18 -14 0 -5 -5 -9 -10 -9
-6 0 -16 -5 -23 -10 -7 -6 -43 -33 -82 -60 -38 -27 -74 -53 -80 -57 -5 -5 -31
-23 -58 -41 -26 -18 -58 -43 -71 -55 -14 -12 -37 -31 -52 -42 -15 -11 -41 -31
-58 -45 -17 -14 -39 -32 -50 -40 -19 -16 -98 -85 -126 -110 -9 -8 -47 -42 -85
-75 -113 -97 -447 -435 -545 -551 -14 -16 -50 -59 -81 -94 -159 -184 -407
-530 -552 -771 -117 -196 -342 -618 -353 -664 -1 -5 -28 -68 -59 -140 -117
-268 -284 -758 -311 -914 -3 -14 -11 -48 -19 -76 -8 -27 -16 -61 -19 -75 -2
-14 -9 -45 -15 -70 -5 -25 -12 -56 -15 -70 -2 -14 -9 -45 -15 -70 -9 -42 -37
-209 -46 -275 -2 -16 -7 -48 -10 -70 -11 -68 -13 -88 -20 -165 -4 -41 -9 -84
-11 -94 -3 -19 -6 -54 -20 -256 -14 -206 -7 -753 11 -890 3 -19 9 -78 15 -130
5 -52 12 -113 15 -135 3 -22 7 -58 10 -80 9 -67 23 -156 39 -240 8 -44 17 -96
21 -115 15 -84 73 -331 102 -430 13 -47 26 -95 29 -108 19 -95 204 -605 279
-767 12 -27 33 -74 46 -104 52 -117 225 -452 261 -503 10 -14 18 -31 18 -37 0
-6 5 -11 10 -11 6 0 10 -5 10 -12 0 -14 140 -242 152 -246 4 -2 8 -8 8 -13 0
-9 45 -77 138 -209 26 -36 49 -67 52 -70 3 -3 30 -39 60 -80 29 -41 56 -77 60
-80 3 -3 27 -32 53 -65 26 -33 53 -67 60 -75 7 -8 55 -64 107 -125 126 -147
478 -498 601 -600 13 -11 67 -56 119 -100 52 -44 100 -83 105 -87 6 -4 55 -43
110 -86 96 -76 434 -308 465 -320 8 -3 20 -10 25 -14 15 -13 109 -73 115 -74
3 0 24 -13 47 -27 24 -15 45 -27 47 -27 3 0 29 -14 58 -31 56 -34 461 -239
471 -239 3 0 34 -13 69 -28 73 -33 221 -94 258 -107 3 -1 18 -7 33 -13 15 -7
39 -15 53 -18 13 -3 27 -10 30 -15 3 -5 15 -9 28 -9 12 0 26 -4 32 -9 5 -5 56
-23 114 -40 58 -18 112 -35 120 -38 8 -3 20 -7 25 -9 6 -1 85 -23 178 -48 145
-40 429 -105 522 -120 17 -3 84 -14 150 -25 66 -11 145 -23 175 -26 52 -6 80
-9 168 -20 171 -21 365 -29 667 -29 263 0 395 4 525 19 19 2 64 6 100 9 36 4
115 13 175 21 61 8 126 17 145 19 68 8 318 55 405 76 22 5 81 19 130 30 293
68 812 245 1060 361 39 18 72 33 75 33 6 1 369 183 390 196 8 5 65 37 125 71
144 80 259 151 263 161 2 4 7 8 12 8 10 0 282 184 335 227 6 5 26 19 45 33 19
13 49 35 66 49 17 14 40 33 50 41 43 34 170 136 180 145 11 10 132 117 168
148 96 84 420 417 518 532 105 124 169 202 212 260 17 22 32 42 36 45 3 3 18
23 35 45 16 22 32 42 35 45 3 3 34 48 70 100 35 52 68 97 72 98 4 2 8 7 8 12
0 4 24 43 53 87 67 103 148 232 163 258 6 11 32 61 59 110 27 50 60 110 75
135 14 25 40 74 57 110 116 243 150 317 190 415 24 61 48 119 53 130 27 59
164 460 175 515 2 8 18 66 35 129 18 63 34 124 36 135 2 12 13 59 24 106 11
47 29 130 40 185 11 55 21 110 24 121 2 12 7 39 10 60 3 22 8 50 11 64 2 14 7
43 10 65 3 22 7 51 10 65 2 14 6 45 9 70 3 25 8 70 11 100 11 97 14 133 20
245 4 61 8 128 11 150 9 94 2 635 -10 759 -3 22 -8 77 -11 121 -4 44 -9 88
-10 97 -2 9 -7 48 -10 85 -4 37 -8 75 -10 83 -2 8 -7 38 -11 65 -3 28 -8 59
-10 70 -4 22 -12 67 -18 105 -4 24 -32 175 -40 215 -2 11 -12 52 -21 90 -9 39
-18 77 -20 85 -8 34 -29 117 -39 155 -1 6 -8 30 -15 55 -28 104 -98 327 -129
410 -3 8 -6 20 -7 25 -3 12 -41 111 -54 140 -5 11 -26 63 -46 115 -42 106
-160 370 -186 413 l-16 28 669 669 670 669 77 -75 c116 -115 208 -174 332
-212 127 -39 262 -43 384 -11 49 13 165 59 180 71 5 5 31 22 57 39 121 78 256
276 284 414 35 178 22 314 -47 463 -16 35 -43 84 -60 110 -18 26 -278 292
-580 592 -301 300 -1016 1012 -1589 1583 -573 570 -1065 1057 -1094 1081 -79
67 -199 127 -307 152 -49 12 -236 11 -289 0z m1274 -2823 l727 -726 -805 -806
c-442 -443 -856 -858 -919 -922 l-115 -117 84 -136 c170 -278 314 -564 406
-806 22 -58 46 -118 53 -135 7 -16 36 -102 65 -189 88 -272 174 -633 210 -891
6 -44 13 -91 15 -105 2 -14 7 -54 10 -90 3 -36 8 -83 11 -105 24 -194 24 -931
0 -1007 -3 -7 -7 -42 -10 -78 -4 -36 -8 -81 -11 -100 -3 -19 -7 -53 -10 -75
-12 -100 -17 -132 -25 -165 -5 -19 -11 -53 -15 -75 -29 -195 -183 -751 -250
-900 -107 -240 -235 -444 -380 -603 -196 -216 -378 -358 -626 -492 -60 -32
-109 -57 -109 -55 0 3 -21 -6 -47 -19 -46 -23 -270 -103 -309 -110 -11 -2 -37
-9 -59 -15 -22 -5 -56 -13 -75 -16 -48 -8 -101 -17 -125 -21 -129 -25 -519
-25 -641 0 -12 2 -38 7 -59 10 -157 25 -366 90 -518 160 -42 20 -79 36 -81 36
-9 0 -191 105 -194 112 -2 4 -9 8 -16 8 -7 0 -21 9 -31 20 -10 11 -22 20 -27
20 -9 0 -62 36 -86 58 -8 7 -30 25 -50 40 -93 69 -253 228 -332 329 -8 10 -31
39 -51 63 -119 148 -266 423 -329 612 -20 59 -67 229 -76 273 -41 198 -58 466
-41 656 4 36 9 102 12 145 4 43 8 85 10 92 10 31 20 298 19 527 -1 231 -4 299
-20 490 -6 72 -41 353 -48 391 -2 12 -7 37 -10 55 -3 19 -8 45 -11 59 -3 14
-9 50 -15 80 -56 306 -201 781 -327 1075 -56 130 -58 135 -109 245 -26 58 -53
111 -58 119 -6 8 -20 35 -31 60 -23 53 -161 299 -181 321 -7 8 -13 18 -13 22
-1 10 -53 92 -140 222 -36 54 -70 106 -76 115 -5 9 -12 18 -15 21 -3 3 -26 34
-52 70 -25 36 -57 79 -71 95 -14 17 -51 62 -82 100 -82 101 -91 112 -168 200
-81 92 -287 298 -367 367 -30 26 -71 61 -90 78 -76 69 -244 201 -359 283 l-93
66 -39 -19 c-21 -11 -62 -29 -91 -41 -74 -29 -385 -185 -492 -247 -49 -29 -90
-52 -92 -52 -2 0 -220 -133 -244 -150 -115 -79 -191 -133 -216 -154 -18 -14
-36 -26 -42 -26 -6 0 -12 -3 -14 -8 -1 -4 -34 -32 -73 -62 -38 -30 -99 -79
-135 -110 -35 -30 -78 -66 -94 -80 -29 -24 -166 -153 -245 -230 -67 -66 -226
-235 -276 -294 -27 -32 -55 -64 -60 -70 -71 -78 -345 -447 -345 -465 0 -5 -3
-11 -8 -13 -14 -6 -144 -215 -238 -383 -32 -56 -168 -333 -209 -425 -66 -147
-137 -331 -210 -545 -34 -101 -119 -419 -141 -530 -7 -37 -24 -130 -30 -170
-3 -22 -7 -42 -9 -45 -2 -3 -9 -44 -15 -90 -6 -47 -13 -96 -15 -110 -51 -327
-59 -879 -19 -1245 20 -192 22 -203 49 -360 33 -188 77 -383 120 -535 19 -69
37 -132 39 -141 3 -9 16 -54 31 -100 15 -46 28 -88 29 -94 2 -5 8 -23 15 -40
7 -16 30 -75 51 -130 21 -55 54 -138 74 -185 21 -47 45 -103 54 -125 34 -81
191 -382 239 -457 12 -21 23 -40 23 -42 0 -9 65 -111 73 -114 4 -2 7 -10 7
-18 0 -8 5 -14 10 -14 6 0 10 -5 10 -10 0 -14 79 -133 175 -265 88 -121 87
-120 116 -155 12 -14 33 -41 48 -60 14 -19 28 -37 31 -40 3 -3 27 -32 54 -65
65 -78 -13 -9 -234 207 -61 60 -193 201 -250 267 -30 36 -62 72 -70 80 -8 9
-43 52 -78 96 -35 44 -70 89 -79 99 -9 11 -43 58 -77 105 -33 47 -64 88 -68
89 -5 2 -8 9 -8 16 0 7 -9 21 -20 31 -11 10 -20 22 -20 27 0 5 -5 14 -10 21
-22 26 -130 198 -130 207 0 6 -4 10 -10 10 -5 0 -10 5 -10 10 0 6 -11 27 -23
48 -149 236 -344 665 -457 1002 -23 69 -44 132 -47 140 -3 8 -8 24 -10 35 -2
11 -7 31 -13 45 -13 36 -65 240 -85 335 -9 44 -19 89 -21 100 -38 179 -73 422
-89 613 -3 34 -8 90 -11 125 -8 82 -8 599 0 662 3 28 8 88 11 135 4 47 8 96
10 110 2 14 7 48 10 75 8 70 14 116 32 225 8 52 17 109 20 125 28 178 161 678
213 800 25 62 53 131 55 140 1 5 6 19 10 30 4 11 20 52 36 90 114 294 324 685
528 985 99 146 105 155 114 158 4 2 7 8 7 13 0 5 8 17 18 27 9 11 26 32 37 47
30 42 143 184 180 224 17 20 70 79 116 131 101 113 277 290 378 380 41 36 79
70 85 75 6 6 47 40 91 75 44 36 82 68 85 71 37 42 502 361 610 418 25 14 47
27 50 30 3 4 16 12 30 18 14 7 54 29 90 49 188 105 434 219 655 304 11 4 38
15 60 23 22 9 58 21 80 28 22 6 46 16 53 22 6 5 12 7 12 3 0 -3 17 1 38 9 126
49 643 178 802 200 25 3 52 8 60 10 8 2 40 7 70 10 30 3 66 8 80 10 14 2 59 6
100 10 41 3 86 8 100 10 73 12 241 19 455 19 222 0 510 -10 545 -19 8 -2 44
-6 80 -10 36 -3 76 -8 90 -10 14 -2 45 -7 70 -10 42 -6 181 -29 240 -40 20 -4
108 -22 281 -60 78 -17 283 -77 414 -122 88 -30 165 -55 170 -57 14 -3 208
-80 270 -106 103 -45 124 -54 270 -127 83 -41 156 -79 163 -85 6 -6 12 -7 12
-4 0 4 12 -1 28 -12 15 -10 47 -30 72 -44 143 -81 195 -112 198 -119 2 -5 8
-9 13 -9 5 0 54 -30 109 -66 l100 -67 902 905 c497 498 908 906 914 907 7 0
339 -326 738 -726z"/>
<path d="M15714 14385 c-127 -27 -252 -96 -348 -191 -52 -52 -122 -169 -151
-255 -25 -74 -28 -98 -28 -204 0 -102 4 -132 26 -200 67 -205 227 -366 432
-435 94 -32 270 -37 365 -11 131 36 215 85 310 181 76 77 122 151 155 247 131
383 -97 780 -500 870 -51 11 -205 10 -261 -2z"/>
</g>
</svg>
